<mxfile host="app.diagrams.net" modified="2023-10-02T19:42:55.706Z" agent="Mozilla/5.0 (Windows NT 10.0; Win64; x64) AppleWebKit/537.36 (KHTML, like Gecko) Chrome/117.0.0.0 Safari/537.36" etag="U_7Y5vrj5gTlJXX_IP82" version="22.0.1" type="device">
  <diagram name="Page-1" id="90a13364-a465-7bf4-72fc-28e22215d7a0">
    <mxGraphModel dx="729" dy="887" grid="1" gridSize="10" guides="1" tooltips="1" connect="1" arrows="1" fold="1" page="1" pageScale="1.5" pageWidth="1169" pageHeight="826" background="none" math="0" shadow="0">
      <root>
        <mxCell id="0" style=";html=1;" />
        <mxCell id="1" style=";html=1;" parent="0" />
        <mxCell id="3a17f1ce550125da-1" value="Newsagent App (command-line UI)" style="whiteSpace=wrap;html=1;shadow=1;fontSize=20;fillColor=#f5f5f5;strokeColor=#666666;strokeWidth=2;dashed=1;" parent="1" vertex="1">
          <mxGeometry x="769.25" y="220" width="205.5" height="60" as="geometry" />
        </mxCell>
        <mxCell id="3a17f1ce550125da-4" value="Java Application (Business Logic)" style="whiteSpace=wrap;html=1;shadow=1;fontSize=18;fillColor=#f5f5f5;strokeColor=#666666;" parent="1" vertex="1">
          <mxGeometry x="803.75" y="380" width="143" height="76" as="geometry" />
        </mxCell>
        <mxCell id="3a17f1ce550125da-5" value="MySQL Database (Data Storage)" style="whiteSpace=wrap;html=1;shadow=1;fontSize=18;fillColor=#f5f5f5;strokeColor=#666666;" parent="1" vertex="1">
          <mxGeometry x="806.75" y="540" width="140" height="70" as="geometry" />
        </mxCell>
        <mxCell id="3a17f1ce550125da-6" value="&lt;div style=&quot;text-align: center;&quot;&gt;&lt;span style=&quot;background-color: initial;&quot;&gt;Database Tables:&lt;/span&gt;&lt;/div&gt;&lt;div style=&quot;text-align: center;&quot;&gt;&lt;span style=&quot;background-color: initial;&quot;&gt;&lt;br&gt;&lt;/span&gt;&lt;/div&gt;- Customer_Details&lt;br&gt;- Newsagent&lt;br&gt;- Delivery_Driver&lt;br&gt;- Delivery_Doc&lt;br&gt;- Invoices&lt;br&gt;- Publication&lt;br&gt;- Subscription" style="whiteSpace=wrap;html=1;shadow=1;fontSize=18;fillColor=#f5f5f5;strokeColor=#666666;align=left;" parent="1" vertex="1">
          <mxGeometry x="974.75" y="540" width="195.25" height="230" as="geometry" />
        </mxCell>
        <mxCell id="3a17f1ce550125da-24" style="edgeStyle=elbowEdgeStyle;rounded=0;html=1;startArrow=none;startFill=0;jettySize=auto;orthogonalLoop=1;fontSize=18;exitX=0.5;exitY=1;exitDx=0;exitDy=0;" parent="1" edge="1" target="3a17f1ce550125da-4" source="3a17f1ce550125da-1">
          <mxGeometry relative="1" as="geometry">
            <mxPoint x="860" y="300" as="sourcePoint" />
            <mxPoint x="870" y="320" as="targetPoint" />
            <Array as="points">
              <mxPoint x="870" y="300" />
              <mxPoint x="900" y="310" />
            </Array>
          </mxGeometry>
        </mxCell>
        <mxCell id="3a17f1ce550125da-25" style="edgeStyle=elbowEdgeStyle;rounded=0;html=1;startArrow=none;startFill=0;jettySize=auto;orthogonalLoop=1;fontSize=18;exitX=0.4;exitY=1.044;exitDx=0;exitDy=0;exitPerimeter=0;entryX=0.5;entryY=0;entryDx=0;entryDy=0;" parent="1" edge="1" target="3a17f1ce550125da-5" source="3a17f1ce550125da-4">
          <mxGeometry relative="1" as="geometry">
            <mxPoint x="896.008" y="417.9760000000001" as="sourcePoint" />
            <mxPoint x="877" y="500" as="targetPoint" />
            <Array as="points">
              <mxPoint x="877" y="420" />
              <mxPoint x="918.5" y="460" />
            </Array>
          </mxGeometry>
        </mxCell>
        <mxCell id="rPHHuECfuUnvt16iD2wF-3" value="Interacts with" style="text;html=1;strokeColor=none;fillColor=none;align=center;verticalAlign=middle;whiteSpace=wrap;rounded=0;" vertex="1" parent="1">
          <mxGeometry x="877" y="480" width="60" height="30" as="geometry" />
        </mxCell>
        <mxCell id="rPHHuECfuUnvt16iD2wF-4" value="Commands/Prompts" style="text;html=1;strokeColor=none;fillColor=none;align=center;verticalAlign=middle;whiteSpace=wrap;rounded=0;" vertex="1" parent="1">
          <mxGeometry x="900" y="300" width="60" height="30" as="geometry" />
        </mxCell>
      </root>
    </mxGraphModel>
  </diagram>
</mxfile>
